<svg width="56" height="56" viewBox="0 0 56 56" fill="none" xmlns="http://www.w3.org/2000/svg">
<path d="M29.2154 6.04391H34.2099C34.4812 6.04391 34.7014 5.82368 34.7014 5.55241V4.49151C34.7014 4.42696 34.6887 4.36305 34.664 4.30341C34.6393 4.24378 34.6031 4.1896 34.5575 4.14396C34.5118 4.09832 34.4576 4.06211 34.398 4.03741C34.3384 4.01271 34.2745 4 34.2099 4H18.0665C17.9361 4 17.8111 4.05178 17.719 4.14396C17.6268 4.23613 17.575 4.36115 17.575 4.49151V5.55241C17.575 5.82368 17.7952 6.04391 18.0665 6.04391H21.3405V9.38777C21.3405 9.84436 21.7101 10.2145 22.1661 10.2145H31.9952C32.4545 10.2145 32.8262 10.5856 32.8262 11.0449V35.6578H34.7052C35.0291 35.6578 35.2923 35.9205 35.2923 36.2444V37.7179H16.6328V36.2433C16.6328 35.9194 16.896 35.6562 17.2205 35.6562L19.0995 35.6573L30.8876 35.6578" stroke="#272727" stroke-linecap="round"/>
<path d="M23.6395 6.04391H30.9353V10.1801" stroke="#272727" stroke-linecap="round"/>
<path fill-rule="evenodd" clip-rule="evenodd" d="M19.4508 35.6111V10.8102C19.451 10.6521 19.5139 10.5006 19.6257 10.3889C19.7375 10.2772 19.889 10.2145 20.0471 10.2145H22.1667L19.4508 35.6111ZM35.4465 44.2509C35.1672 44.3556 34.5752 44.4899 34.1643 44.6569L34.5511 40.1405C34.8142 40.022 35.0994 39.9604 35.388 39.9594C35.6581 39.9594 35.9256 40.0127 36.1752 40.1161C36.4248 40.2195 36.6516 40.371 36.8425 40.5621C37.0335 40.7531 37.185 40.9799 37.2884 41.2295C37.3917 41.4791 37.4449 41.7466 37.4448 42.0168C37.4448 43.1529 36.6449 43.8012 35.4465 44.2509ZM17.8184 45.3386C17.9018 46.9664 18.4492 48.5364 19.396 49.8631C20.3656 51.2249 21.9648 52 23.637 52H28.5692C30.0577 52 31.4033 51.3726 32.3847 50.2408C32.9057 49.6402 33.4198 47.7575 34.0542 47.267C35.338 46.276 37.1961 46.2615 38.3725 45.1173C39.7627 43.7636 40.1349 41.5575 39.0982 39.7709C38.5798 38.8781 37.7214 38.2534 36.733 37.9553C35.9219 37.7098 35.3015 37.706 34.4098 37.7248V37.7221H18.8535C18.6441 37.7222 18.4369 37.7655 18.245 37.8495C18.0532 37.9334 17.8807 38.0562 17.7386 38.21C17.5965 38.3639 17.4877 38.5454 17.4192 38.7433C17.3506 38.9412 17.3238 39.1512 17.3403 39.36L17.8184 45.3386V45.3386Z" stroke="#272727"/>
</svg>
