<svg width="56" height="56" viewBox="0 0 56 56" fill="none" xmlns="http://www.w3.org/2000/svg">
<path fill-rule="evenodd" clip-rule="evenodd" d="M42.9899 29.7589C41.6255 30.0619 40.9077 29.8289 40.0031 28.8951L42.3816 17.6675L40.966 16.0172L37.3959 15.9527L38.023 12.5401L41.3712 12.6167C41.6219 12.6205 41.869 12.6775 42.096 12.784C42.323 12.8904 42.5249 13.0439 42.6882 13.2342L45.2194 16.1851C45.5923 16.6206 45.7316 17.2119 45.591 17.7691L42.9899 29.7589Z" stroke="#272727" stroke-linejoin="round"/>
<mask id="mask0_2455_6528" style="mask-type:alpha" maskUnits="userSpaceOnUse" x="10" y="4" width="36" height="48">
<path d="M10 52H45.9767V4H10V52Z" fill="white"/>
</mask>
<g mask="url(#mask0_2455_6528)">
<path fill-rule="evenodd" clip-rule="evenodd" d="M19.1562 34.6151H33.8561V29.3593H19.1562V34.6151ZM34.9796 34.6151H17.9262L15.3804 49.7572L21.9502 51.6685H30.9532L37.5236 49.7572L34.9796 34.6151Z" stroke="#272727" stroke-linejoin="round"/>
<path fill-rule="evenodd" clip-rule="evenodd" d="M30.8901 12.5401H15.3903L17.8613 29.3599H34.9165L38.0225 12.5401H30.8901ZM28.7707 4.71416L28.1576 8.70103H24.5928L23.9791 4.71416C25.6331 4.22264 27.2354 4.18554 28.7707 4.71416Z" stroke="#272727" stroke-linejoin="round"/>
<path d="M11.66 12.5693L24.5927 8.70042H28.1574L38.037 12.5346" stroke="#272727" stroke-linecap="round" stroke-linejoin="round"/>
<path fill-rule="evenodd" clip-rule="evenodd" d="M16.9725 12.5401L17.0802 24.0414L12.1213 14.9192L10.3316 13.8133L11.6602 12.5693L16.9725 12.5401Z" fill="#FEFEFE"/>
<path d="M30.6535 49.7328L29.5968 36.5507M16.9725 12.5401L17.0802 24.0414L12.1213 14.9192L10.3316 13.8133L11.6602 12.5693L16.9725 12.5401ZM31.2265 14.3182L30.1705 27.493L31.2265 14.3182ZM21.7143 14.3182L22.771 27.493L21.7143 14.3182ZM22.1602 49.7328L23.2168 36.5507L22.1602 49.7328Z" stroke="#272727" stroke-linecap="round" stroke-linejoin="round"/>
</g>
</svg>
