<svg width="56" height="56" viewBox="0 0 56 56" fill="none" xmlns="http://www.w3.org/2000/svg">
<path d="M38.6635 43.4945C38.6635 43.8876 33.5386 44.2054 27.2055 44.2054M15.9801 33.7836C14.4306 27.0913 12.4608 17.5741 10.2186 13.9473C9.74523 13.1819 9 11.7362 9 11.7362L12.7906 11.0718C12.7906 11.0718 15.5766 15.6196 17.957 15.6196L15.9801 33.7836ZM28.9662 5.71267C28.9662 6.1669 28.7857 6.60252 28.4646 6.92371C28.1434 7.24489 27.7078 7.42533 27.2535 7.42533C26.7993 7.42533 26.3637 7.24489 26.0425 6.92371C25.7213 6.60252 25.5409 6.1669 25.5409 5.71267C25.5409 5.25844 25.7213 4.82282 26.0425 4.50163C26.3637 4.18044 26.7993 4 27.2535 4C27.7078 4 28.1434 4.18044 28.4646 4.50163C28.7857 4.82282 28.9662 5.25844 28.9662 5.71267V5.71267ZM44.6979 26.7948C44.4413 29.7959 41.5571 33.9932 40.3532 36.0286C40.2167 36.2595 39.8646 36.176 39.8438 35.9085C39.8438 35.9085 39.8684 32.0294 39.1903 25.1788C38.5352 18.5536 39.1467 24.2419 37.9958 15.9657C37.9903 15.8953 38.0123 15.8254 38.057 15.7707C38.1017 15.716 38.1658 15.6807 38.236 15.672L41.8868 15.2407C41.9462 15.2332 42.0065 15.2453 42.0584 15.2753C42.1102 15.3053 42.1508 15.3514 42.174 15.4067C42.7172 16.6979 44.9163 24.2523 44.6979 26.7953V26.7948ZM43.4346 12.5311L40.3914 12.9269L40.1807 13.4451L36.2542 14.0134C37.0294 19.7454 38.7972 33.646 38.7749 41.0585C38.7749 41.0585 43.047 37.4464 46.1627 29.7615C48.4268 24.178 43.4346 12.5311 43.4346 12.5311V12.5311ZM15.7475 43.4945C15.7475 43.8876 20.8724 44.2054 27.2055 44.2054L15.7475 43.4945Z" stroke="#272727" stroke-linecap="round" stroke-linejoin="round"/>
<path d="M35.8829 11.4419C35.8829 11.4419 40.4853 43.3187 38.0487 45.7553C35.6121 48.1919 38.0487 49.7037 38.0487 50.4932C38.0487 51.2821 33.199 52 27.2055 52C21.212 52 16.3628 51.2821 16.3628 50.4932C16.3628 49.7037 18.7988 48.1919 16.3628 45.7553C13.9256 43.3187 18.528 11.4419 18.528 11.4419" stroke="#272727" stroke-linecap="round" stroke-linejoin="round"/>
<path fill-rule="evenodd" clip-rule="evenodd" d="M28.3302 8.34036L28.1626 7.16273C27.8904 7.3347 27.5749 7.42593 27.2529 7.42583C26.931 7.42573 26.6156 7.33431 26.3435 7.16219L26.1759 8.34036C21.8066 8.64173 18.4211 10.6831 18.4211 11.4414C18.4211 12.262 22.3754 12.244 27.2536 12.244C32.1312 12.244 36.0861 12.262 36.0861 11.4414C36.0861 10.6831 32.7 8.64173 28.3302 8.34036V8.34036ZM28.1156 47.7978C28.1156 48.0265 28.0248 48.246 27.863 48.4077C27.7012 48.5695 27.4818 48.6604 27.253 48.6604C27.0242 48.6604 26.8048 48.5695 26.6431 48.4077C26.4813 48.246 26.3904 48.0265 26.3904 47.7978C26.3904 47.569 26.4813 47.3496 26.6431 47.1878C26.8048 47.026 27.0242 46.9352 27.253 46.9352C27.4818 46.9352 27.7012 47.026 27.863 47.1878C28.0248 47.3496 28.1156 47.569 28.1156 47.7978V47.7978Z" stroke="#272727" stroke-linecap="round" stroke-linejoin="round"/>
</svg>
