<svg width="56" height="56" viewBox="0 0 56 56" fill="none" xmlns="http://www.w3.org/2000/svg">
<path fill-rule="evenodd" clip-rule="evenodd" d="M39.4041 16.1081C39.4041 22.7948 34.02 28.2163 27.3788 28.2163C20.7377 28.2163 15.3536 22.7948 15.3536 16.1081C15.3536 9.42147 20.7377 4 27.3788 4C34.02 4 39.4041 9.42147 39.4041 16.1081Z" stroke="#272727" stroke-linecap="round" stroke-linejoin="round"/>
<path fill-rule="evenodd" clip-rule="evenodd" d="M37.6863 16.1081C37.6863 21.8398 33.0718 26.4862 27.379 26.4862C21.6862 26.4862 17.0716 21.8398 17.0716 16.1081C17.0716 10.3764 21.6862 5.73003 27.379 5.73003C33.0718 5.73003 37.6863 10.3764 37.6863 16.1081V16.1081Z" stroke="#272727" stroke-linecap="round" stroke-linejoin="round"/>
<path fill-rule="evenodd" clip-rule="evenodd" d="M33.3916 16.1081C33.3916 19.4515 30.6996 22.1622 27.379 22.1622C24.0584 22.1622 21.3663 19.4509 21.3663 16.1081C21.3663 12.7648 24.0584 10.0541 27.379 10.0541C30.6996 10.0541 33.3916 12.7648 33.3916 16.1081Z" stroke="#272727" stroke-linecap="round" stroke-linejoin="round"/>
<path d="M28.1368 27.7474H15.5775C15.2587 27.7474 15 28.0035 15 28.3193C15 29.156 15.6846 29.8341 16.5294 29.8341H16.5481C16.8159 29.8341 17.0413 30.0342 17.0706 30.2979L19.415 51.3138C19.437 51.5032 19.528 51.6779 19.6706 51.8045C19.8131 51.931 19.9974 52.0006 20.188 52H28.1368" stroke="#272727" stroke-linecap="round" stroke-linejoin="round"/>
<path fill-rule="evenodd" clip-rule="evenodd" d="M28.1368 27.7474H15.5775C15.2587 27.7474 15 28.0035 15 28.3193C15 29.156 15.6846 29.8341 16.5294 29.8341H16.5481C16.8159 29.8341 17.0413 30.0342 17.0706 30.2979L19.415 51.3138C19.437 51.5032 19.528 51.6779 19.6706 51.8045C19.8131 51.931 19.9974 52.0006 20.188 52H28.1368" fill="white"/>
<path d="M28.1368 27.7474H15.5775C15.2587 27.7474 15 28.0035 15 28.3193C15 29.156 15.6846 29.8341 16.5294 29.8341H16.5481C16.8159 29.8341 17.0413 30.0342 17.0706 30.2979L19.415 51.3138C19.437 51.5032 19.528 51.6779 19.6706 51.8045C19.8131 51.931 19.9974 52.0006 20.188 52H28.1368" stroke="#272727" stroke-linecap="round" stroke-linejoin="round"/>
<path d="M27.6315 52H35.2746C35.6561 52 35.977 51.7044 36.0184 51.3138L38.2724 30.2979C38.3007 30.0342 38.5169 29.8341 38.7746 29.8341H38.7923C39.6048 29.8341 40.2631 29.156 40.2631 28.3193C40.2631 28.0035 40.0145 27.7474 39.7078 27.7474H27.6315" stroke="#272727" stroke-linecap="round" stroke-linejoin="round"/>
<path fill-rule="evenodd" clip-rule="evenodd" d="M27.6315 52H35.2746C35.6561 52 35.977 51.7044 36.0184 51.3138L38.2724 30.2979C38.3007 30.0342 38.5169 29.8341 38.7746 29.8341H38.7923C39.6048 29.8341 40.2631 29.156 40.2631 28.3193C40.2631 28.0035 40.0145 27.7474 39.7078 27.7474H27.6315" fill="white"/>
<path d="M27.6315 52H35.2746C35.6561 52 35.977 51.7044 36.0184 51.3138L38.2724 30.2979C38.3007 30.0342 38.5169 29.8341 38.7746 29.8341H38.7923C39.6048 29.8341 40.2631 29.156 40.2631 28.3193C40.2631 28.0035 40.0145 27.7474 39.7078 27.7474H27.6315" stroke="#272727" stroke-linecap="round" stroke-linejoin="round"/>
<path d="M38.0845 31.7895H29.976C29.8006 31.7897 29.627 31.8244 29.4651 31.8917C29.3031 31.959 29.156 32.0575 29.0322 32.1817C28.9083 32.3058 28.8101 32.4531 28.7432 32.6152C28.6763 32.7773 28.6419 32.951 28.6421 33.1264V44.2462C28.6421 44.6216 28.9453 44.9263 29.3207 44.9263H36.5576M17.3661 31.7895H25.7924C25.9678 31.7896 26.1415 31.8243 26.3034 31.8916C26.4654 31.9588 26.6125 32.0574 26.7364 32.1815C26.8603 32.3057 26.9585 32.453 27.0254 32.6152C27.0923 32.7773 27.1266 32.951 27.1263 33.1264V44.2462C27.1263 44.6216 26.8227 44.9263 26.4483 44.9263H18.8168L17.3661 31.7895Z" stroke="#272727" stroke-linecap="round" stroke-linejoin="round"/>
</svg>
