<svg width="56" height="56" viewBox="0 0 56 56" fill="none" xmlns="http://www.w3.org/2000/svg">
<path fill-rule="evenodd" clip-rule="evenodd" d="M35.1181 26.5364H21.7867L14.8435 40.1699C14.4162 41.0105 14.0934 41.9137 14.0235 42.8534C13.6637 47.6747 17.4784 52 22.5379 52H34.3662C39.1832 52 42.8715 48.0789 42.9043 43.5427C42.9122 42.3429 42.567 41.1661 42.0218 40.0963L35.1181 26.5357V26.5364ZM16.3873 6.20641L21.859 16.4829H35.0452L40.5162 6.20641C41.1234 5.24908 40.4354 4 39.3018 4H17.6024C16.4688 4 15.7807 5.24908 16.3873 6.20641V6.20641Z" stroke="#272727"/>
<path fill-rule="evenodd" clip-rule="evenodd" d="M36.0115 24.9287C33.6987 22.7314 36.5537 18.1046 36.5537 18.1046C36.5537 18.1046 38.1778 15.3852 34.0008 15.3852H22.756C18.5791 15.3852 20.2032 18.1046 20.2032 18.1046C20.2032 18.1046 23.0587 22.7314 20.7441 24.9287C18.432 27.1272 21.0541 28.4875 21.0541 28.4875H35.7015C35.7015 28.4875 38.3249 27.1272 36.0115 24.9287" fill="white"/>
<path fill-rule="evenodd" clip-rule="evenodd" d="M36.0115 24.9287C33.6987 22.7314 36.5537 18.1046 36.5537 18.1046C36.5537 18.1046 38.1778 15.3852 34.0008 15.3852H22.756C18.5791 15.3852 20.2032 18.1046 20.2032 18.1046C20.2032 18.1046 23.0587 22.7314 20.7441 24.9287C18.432 27.1272 21.0541 28.4875 21.0541 28.4875H35.7015C35.7015 28.4875 38.3249 27.1272 36.0115 24.9287V24.9287Z" stroke="#272727"/>
<path d="M21.6074 21.9357C21.6074 21.9357 25.2489 23.6784 30.4136 21.9357M33.4831 21.9357C33.4832 22.1373 33.4436 22.3369 33.3665 22.5231C33.2895 22.7093 33.1765 22.8786 33.034 23.0211C32.8916 23.1637 32.7224 23.2768 32.5362 23.354C32.3501 23.4312 32.1505 23.471 31.949 23.4711C31.7474 23.4712 31.5478 23.4315 31.3616 23.3545C31.1754 23.2774 31.0061 23.1645 30.8635 23.022C30.721 22.8795 30.6079 22.7104 30.5307 22.5242C30.4535 22.338 30.4137 22.1385 30.4136 21.9369C30.4134 21.5299 30.575 21.1395 30.8627 20.8515C31.1504 20.5636 31.5407 20.4017 31.9477 20.4016C32.3548 20.4014 32.7452 20.5629 33.0332 20.8507C33.3211 21.1384 33.483 21.5287 33.4831 21.9357V21.9357Z" stroke="#272727"/>
<path d="M33.6677 22.6536C33.6677 22.6536 39.0992 24.0333 42.9358 29.9985M30.7933 23.1246C30.0092 24.0832 27.1731 27.972 27.1731 34.0837L30.7933 23.1246Z" stroke="#272727" stroke-linecap="round"/>
</svg>
