<svg width="56" height="56" viewBox="0 0 56 56" fill="none" xmlns="http://www.w3.org/2000/svg">
<path d="M32.4984 20.8681C32.4903 21.3173 32.3063 21.7453 31.9858 22.0601C31.6653 22.3749 31.2341 22.5512 30.7848 22.5512C30.3356 22.5512 29.9044 22.3749 29.5839 22.0601C29.2634 21.7453 29.0793 21.3173 29.0713 20.8681" stroke="#272727"/>
<path d="M22.4685 18.0134L22.4878 18.1662L22.699 19.7212C22.7393 20.038 22.8936 20.3292 23.1332 20.5403C23.3727 20.7515 23.681 20.868 24.0004 20.8681H36.7306C36.9964 20.8681 37.2559 20.7874 37.4748 20.6366C37.6936 20.4859 37.8616 20.2722 37.9564 20.0239L38.6132 18.3652" stroke="#272727" stroke-linecap="round"/>
<path d="M20.6886 16.9138H23.0073C23.5841 16.9138 23.9007 16.2433 23.534 15.7983C23.1265 15.3042 22.323 15.5937 22.3258 16.235L22.575 18.7275" stroke="#272727"/>
<path fill-rule="evenodd" clip-rule="evenodd" d="M42.5868 27.8795H33.5974C33.4234 27.8795 33.2565 27.9486 33.1334 28.0717C33.0104 28.1948 32.9412 28.3617 32.9412 28.5357V35.9353C32.9412 36.2981 33.2351 36.5915 33.5974 36.5915H42.5873C42.7614 36.5915 42.9283 36.5224 43.0513 36.3993C43.1744 36.2762 43.2435 36.1093 43.2435 35.9353V28.5352C43.2434 28.3612 43.1742 28.1945 43.0511 28.0715C42.9281 27.9486 42.7613 27.8795 42.5873 27.8795H42.5868ZM40.997 39.0238H32.8447C32.2358 39.0238 31.6517 38.7819 31.2211 38.3513C30.7905 37.9207 30.5486 37.3367 30.5486 36.7277V27.7803C30.5486 26.512 31.5764 25.4841 32.8447 25.4841H43.3367C44.605 25.4841 45.6329 26.512 45.6329 27.7803V36.7277C45.6329 37.996 44.605 39.0238 43.3367 39.0238H40.9976H40.997Z" stroke="#272727" stroke-linecap="round"/>
<path fill-rule="evenodd" clip-rule="evenodd" d="M40.9248 39.0239V40.9671C40.9248 41.3721 40.845 41.7731 40.69 42.1472C40.535 42.5214 40.3078 42.8613 40.0214 43.1477C39.735 43.434 39.395 43.6612 39.0208 43.8161C38.6467 43.971 38.2456 44.0507 37.8406 44.0507H23.7782C23.3732 44.0507 22.9721 43.971 22.598 43.8161C22.2238 43.6612 21.8838 43.434 21.5974 43.1477C21.311 42.8613 21.0838 42.5214 20.9288 42.1472C20.7738 41.7731 20.694 41.3721 20.694 40.9671V35.358C20.694 29.5537 25.5797 24.8908 31.4623 25.2558C36.5393 25.5702 40.6557 29.7279 40.9248 34.8076V37.7335" fill="#FEFEFE"/>
<path d="M40.9248 39.0239V40.9671C40.9248 41.3721 40.845 41.7731 40.69 42.1472C40.535 42.5214 40.3078 42.8613 40.0214 43.1477C39.735 43.434 39.395 43.6612 39.0208 43.8161C38.6467 43.971 38.2456 44.0507 37.8406 44.0507H23.7782C23.3732 44.0507 22.9721 43.971 22.598 43.8161C22.2238 43.6612 21.8838 43.434 21.5974 43.1477C21.311 42.8613 21.0838 42.5214 20.9288 42.1472C20.7738 41.7731 20.694 41.3721 20.694 40.9671V35.358C20.694 29.5537 25.5797 24.8908 31.4623 25.2558C36.5393 25.5702 40.6557 29.7279 40.9248 34.8076V37.7335" stroke="#272727" stroke-linecap="round"/>
<path fill-rule="evenodd" clip-rule="evenodd" d="M38.134 28.405H23.4843V25.6567C23.4843 25.2972 23.776 25.006 24.1349 25.006H37.4833C37.8428 25.006 38.134 25.2972 38.134 25.6567V28.405Z" fill="#FEFEFE"/>
<path fill-rule="evenodd" clip-rule="evenodd" d="M38.134 28.405H23.4843V25.6567C23.4843 25.2972 23.776 25.006 24.1349 25.006H37.4833C37.8428 25.006 38.134 25.2972 38.134 25.6567V28.405Z" stroke="#272727"/>
<path d="M22.1139 13.9571L20.7514 4.68101C20.739 4.59653 20.745 4.51039 20.7689 4.42843C20.7928 4.34647 20.8341 4.27061 20.8899 4.20601C20.9457 4.1414 21.0148 4.08957 21.0924 4.05402C21.17 4.01848 21.2544 4.00005 21.3397 4H35.9856C36.0325 4 36.0777 4.00882 36.1235 4.01434H39.6162C39.8024 4.01435 39.9865 4.05399 40.1561 4.13063C40.3258 4.20727 40.4772 4.31916 40.6003 4.45884C40.7234 4.59853 40.8154 4.76282 40.8701 4.9408C40.9248 5.11877 40.941 5.30635 40.9176 5.49106L39.458 17.5463C39.4268 17.7747 39.3139 17.9841 39.1402 18.1356C38.9666 18.2872 38.7439 18.3707 38.5134 18.3707H24.5568" stroke="#272727" stroke-linecap="round"/>
<path d="M18.7834 4H11.6562C11.4822 4 11.3153 4.06913 11.1922 4.1922C11.0691 4.31526 11 4.48216 11 4.6562V49.8671C11 50.3965 11.429 50.8255 11.9589 50.8255H12.6355C12.93 50.8255 13.1886 51.0207 13.2697 51.3035L13.4704 52H16.6957V50.8255" stroke="#272727" stroke-linecap="round" stroke-linejoin="round"/>
<path d="M14.9041 50.8255H37.121C37.2673 50.8255 37.4075 50.8836 37.5109 50.987C37.6143 51.0904 37.6724 51.2306 37.6724 51.3769V52H40.8977L41.067 51.4116C41.1293 51.1944 41.1966 51.0383 41.1641 50.8326M39.3951 50.8255H42.4478C42.9772 50.8255 43.4062 50.3965 43.4062 49.8671V44.7068C43.4062 44.5328 43.337 44.3659 43.214 44.2428C43.0909 44.1198 42.924 44.0506 42.75 44.0506L19.4925 44.0523L17.0938 44.0534C16.517 44.0534 16.2005 44.7245 16.5672 45.1689C16.9747 45.6636 17.7781 45.3741 17.7748 44.7328L17.7808 42.2431L17.7786 17.5695C17.7786 17.2072 18.0725 16.9133 18.4348 16.9133H21.3249L39.3951 50.8255Z" stroke="#272727" stroke-linecap="round" stroke-linejoin="round"/>
</svg>
