<svg width="56" height="56" viewBox="0 0 56 56" fill="none" xmlns="http://www.w3.org/2000/svg">
<path fill-rule="evenodd" clip-rule="evenodd" d="M12.3075 27.2736L19.0971 26.9939C19.3409 26.9839 19.5795 27.0659 19.7657 27.2236C19.9518 27.3813 20.072 27.6032 20.1022 27.8453L20.8713 34.1118C20.9408 34.676 20.5147 35.1769 19.9478 35.2018L12.1099 35.5248C11.9754 35.5302 11.8412 35.5077 11.7158 35.4586C11.5905 35.4095 11.4767 35.3349 11.3816 35.2395C11.2866 35.1441 11.2123 35.0301 11.1637 34.9045C11.115 34.779 11.0929 34.6447 11.0988 34.5102L11.3772 28.2005C11.388 27.9576 11.4895 27.7276 11.6618 27.5559C11.8341 27.3843 12.0645 27.2835 12.3075 27.2736V27.2736ZM24.6747 43.122L22.6807 49.762C22.6155 49.9775 22.4717 50.1608 22.2778 50.2754C22.0839 50.39 21.8541 50.4276 21.6338 50.3808L15.3126 49.0278C15.1915 49.002 15.0771 48.9513 14.9765 48.879C14.8759 48.8066 14.7914 48.7143 14.7284 48.6077C14.6653 48.5011 14.625 48.3826 14.61 48.2596C14.595 48.1367 14.6056 48.012 14.6412 47.8933L16.9453 40.226C16.981 40.107 17.0411 39.9968 17.1217 39.9022C17.2022 39.8077 17.3016 39.7309 17.4134 39.6768C17.5252 39.6227 17.647 39.5924 17.7711 39.5878C17.8953 39.5832 18.019 39.6045 18.1345 39.6503L24.1468 42.0306C24.5796 42.2018 24.8095 42.6757 24.6747 43.1213V43.122Z" stroke="#272727" stroke-linecap="round" stroke-linejoin="round"/>
<path fill-rule="evenodd" clip-rule="evenodd" d="M48.6548 6.61015L48.6232 4L30.8125 4.19684C30.4662 4.20055 30.1273 4.2977 29.8316 4.47806C29.5359 4.65841 29.2944 4.91526 29.1326 5.22149L10.7631 39.9786L13.0571 41.1994L30.6096 7.80063C30.7711 7.49303 31.013 7.23499 31.3095 7.05396C31.606 6.87293 31.9461 6.7757 32.2935 6.77261L48.6548 6.61083V6.61015Z" fill="#FEFEFE"/>
<path fill-rule="evenodd" clip-rule="evenodd" d="M48.6548 6.61015L48.6232 4L30.8125 4.19684C30.4662 4.20055 30.1273 4.2977 29.8316 4.47806C29.5359 4.65841 29.2944 4.91526 29.1326 5.22149L10.7631 39.9786L13.0571 41.1994L30.6096 7.80063C30.7711 7.49303 31.013 7.23499 31.3095 7.05396C31.606 6.87293 31.9461 6.7757 32.2935 6.77261L48.6548 6.61083V6.61015Z" stroke="#272727" stroke-linecap="round" stroke-linejoin="round"/>
<path fill-rule="evenodd" clip-rule="evenodd" d="M7.99707 24.4511C9.15991 23.5182 12.6336 21.1763 16.9155 22.2198C22.268 23.5256 28.7226 24.9392 32.3122 23.5256L7.99707 24.4511ZM28.6403 43.7853L22.0435 44.7156C21.7836 44.7521 21.5194 44.6894 21.3036 44.54C21.0877 44.3906 20.936 44.1655 20.8786 43.9093L19.527 37.8929C19.4955 37.7521 19.4934 37.6064 19.5209 37.4648C19.5484 37.3232 19.605 37.1888 19.687 37.0701C19.769 36.9515 19.8747 36.8511 19.9974 36.7752C20.1201 36.6994 20.2572 36.6498 20.4 36.6296L28.01 35.5571C28.6167 35.4715 29.1648 35.9231 29.1978 36.5346L29.5376 42.6946C29.5516 42.9557 29.4673 43.2125 29.3011 43.4145C29.135 43.6164 28.8992 43.7487 28.6403 43.7853V43.7853Z" stroke="#272727" stroke-linecap="round" stroke-linejoin="round"/>
<path fill-rule="evenodd" clip-rule="evenodd" d="M26.6411 52H13.533C12.632 52.0001 11.7656 51.653 11.1139 51.0308C10.4622 50.4086 10.0753 49.5592 10.0337 48.6591L7.00356 12.632C6.99181 12.4919 7.00924 12.351 7.05475 12.218C7.10026 12.0851 7.17286 11.963 7.26795 11.8596C7.36305 11.7561 7.47858 11.6735 7.60723 11.617C7.73589 11.5604 7.87487 11.5312 8.0154 11.5312H31.9348C32.6952 11.5312 33.2925 12.1817 33.2264 12.94L30.141 48.6679C30.0972 49.5664 29.7094 50.4136 29.0579 51.0339C28.4065 51.6543 27.5413 52.0002 26.6417 52H26.6411Z" stroke="#272727" stroke-linecap="round" stroke-linejoin="round"/>
</svg>
