<svg width="56" height="56" viewBox="0 0 56 56" fill="none" xmlns="http://www.w3.org/2000/svg">
<path d="M21.4855 24.5874C21.4128 24.6237 20.5551 25.413 20.2347 25.4142C19.3261 25.4142 18.7518 25.4172 18.6089 25.4185" stroke="#272727" stroke-linecap="round"/>
<path d="M28.0322 28.9607H25.8534C25.7362 28.9607 25.6202 28.9376 25.512 28.8928C25.4038 28.8479 25.3055 28.7822 25.2227 28.6994C25.1399 28.6165 25.0742 28.5181 25.0294 28.4099C24.9847 28.3016 24.9617 28.1856 24.9617 28.0685V26.6687H28.9238V28.0685C28.9238 28.5621 28.5246 28.9607 28.0322 28.9607M23.3596 26.3749L22.2402 27.6196C22.0912 27.7874 21.7508 27.8813 21.5273 27.8813H18.9148C18.8454 27.8813 18.7771 27.898 18.7155 27.9299C18.654 27.9619 18.601 28.0081 18.5611 28.0649L18.4563 28.2139C18.434 28.2452 18.4046 28.2707 18.3704 28.2883C18.3363 28.3059 18.2984 28.3151 18.26 28.315H11.3814C10.7584 28.3151 10.1429 28.4522 9.57877 28.7166C9.17708 28.9056 8.73857 29.0034 8.29464 29.0031H4.54096C4.3385 29.0031 4.13802 28.9632 3.95098 28.8857C3.76395 28.8082 3.59402 28.6946 3.45091 28.5514C3.3078 28.4081 3.19432 28.2381 3.11695 28.051C3.03958 27.8639 2.99984 27.6634 3 27.4609V25.8388C2.99992 25.6364 3.03972 25.436 3.11713 25.2489C3.19453 25.0619 3.30802 24.892 3.45112 24.7488C3.59422 24.6056 3.76412 24.4921 3.95112 24.4146C4.13812 24.3371 4.33855 24.2972 4.54096 24.2972H8.29464C8.73863 24.2972 9.17718 24.3948 9.57877 24.5831C10.1427 24.8479 10.7587 24.9854 11.3814 24.9854H18.0426C18.1982 24.9857 18.3473 25.0477 18.4572 25.1579C18.5672 25.268 18.6289 25.4173 18.6289 25.5729L18.6307 27.9879L23.3596 26.3749ZM35.0149 11.531V43.0771H47.3614L50.9352 11.531H35.0149Z" stroke="#272727" stroke-linecap="round"/>
<path d="M52.0623 46.8326V49.4208C52.0623 49.7283 51.9402 50.0232 51.7228 50.2406C51.5054 50.458 51.2105 50.5802 50.903 50.5802H50.0847C49.7285 50.5802 49.4159 50.8158 49.3172 51.1581L49.0737 52H45.1734V50.5802H47.3401H23.0052C22.6369 50.5802 22.3389 50.8788 22.3389 51.2471V52H18.4362L18.232 51.2895C18.1563 51.026 18.0752 50.8376 18.1139 50.5899L20.254 50.5802H16.5627C16.4104 50.5803 16.2595 50.5503 16.1188 50.4921C15.9781 50.4339 15.8502 50.3485 15.7425 50.2408C15.6348 50.1332 15.5493 50.0053 15.491 49.8646C15.4327 49.7239 15.4027 49.5731 15.4027 49.4208V46.8483C15.4027 44.784 17.0763 43.0686 19.14 43.0686H48.3244C50.3887 43.0686 52.0617 44.7689 52.0617 46.8326M28.0321 28.9607H25.8533C25.7361 28.9607 25.6201 28.9376 25.5119 28.8928C25.4037 28.8479 25.3054 28.7822 25.2226 28.6993C25.1398 28.6165 25.0741 28.5181 25.0293 28.4099C24.9846 28.3016 24.9616 28.1856 24.9616 28.0685V26.6686H28.9237V28.0685C28.9237 28.5621 28.5245 28.9607 28.0321 28.9607V28.9607Z" stroke="#272727" stroke-linecap="round"/>
<path fill-rule="evenodd" clip-rule="evenodd" d="M52.0623 46.8326V49.4208C52.0623 49.7283 51.9402 50.0232 51.7228 50.2406C51.5054 50.458 51.2105 50.5802 50.903 50.5802H50.0847C49.7285 50.5802 49.4159 50.8158 49.3172 51.1581L49.0737 52H45.1734V50.5802H47.3401H23.0052C22.6369 50.5802 22.3389 50.8788 22.3389 51.2471V52H18.4362L18.232 51.2895C18.1563 51.026 18.0752 50.8376 18.1139 50.5899L20.254 50.5802H16.5627C16.4104 50.5803 16.2595 50.5503 16.1188 50.4921C15.9781 50.4339 15.8502 50.3485 15.7425 50.2408C15.6348 50.1332 15.5493 50.0053 15.491 49.8646C15.4327 49.7239 15.4027 49.5731 15.4027 49.4208V46.8483C15.4027 44.784 17.0763 43.0686 19.14 43.0686H48.3244C50.3887 43.0686 52.0617 44.7689 52.0617 46.8326H52.0623ZM21.5962 25.5044L21.2152 22.3407H32.6368L32.2558 25.5044L29.8959 26.6686H23.9555L21.5962 25.5044Z" stroke="#272727" stroke-linecap="round"/>
<path fill-rule="evenodd" clip-rule="evenodd" d="M21.5964 25.5045L21.2154 22.3408H32.6369L32.2559 25.5045L29.896 26.6687H23.9557L21.5964 25.5045ZM20.9507 37.6868C20.9507 37.2156 21.3335 36.8334 21.8036 36.8334C21.9277 36.8334 22.0453 36.8618 22.1506 36.9091L22.3112 38.7826C22.1416 38.7129 21.8956 38.6572 21.7799 38.6142C21.282 38.427 20.9507 38.1587 20.9507 37.6874V37.6868ZM19.9501 36.264C19.6278 36.727 19.4799 37.2891 19.5327 37.8508C19.5855 38.4124 19.8355 38.9372 20.2384 39.332C20.8762 39.9535 21.8847 39.9613 22.5819 40.4986C22.926 40.7651 23.2046 41.7876 23.4875 42.1135C24.0193 42.7283 24.7498 43.0675 25.5578 43.0675H28.2351C29.1207 43.0675 29.9772 42.6738 30.5006 41.9602C31.0364 41.2292 31.3469 40.3576 31.394 39.4525C31.4019 39.4525 31.5575 37.4464 31.6514 36.2301C31.6607 36.1138 31.6458 35.9969 31.6076 35.8866C31.5694 35.7764 31.5088 35.6753 31.4296 35.5897C31.3504 35.5041 31.2542 35.4358 31.1473 35.3893C31.0404 35.3427 30.9249 35.3188 30.8083 35.3191H22.3881V35.3197C21.8696 35.31 21.5201 35.313 21.0319 35.4759C20.597 35.6213 20.2117 35.8872 19.9501 36.264V36.264Z" stroke="#272727" stroke-linecap="round"/>
<path fill-rule="evenodd" clip-rule="evenodd" d="M47.8577 22.3407H49.7058L51.2365 8.72768C51.5115 6.20363 49.5344 4 46.9952 4H19.5159C16.9694 4 14.9911 6.21332 15.2758 8.74282L16.4449 19.1455C16.5439 20.0244 16.9631 20.836 17.6226 21.4254C18.282 22.0148 19.1354 22.3406 20.0199 22.3407H47.8577" fill="white"/>
<path d="M47.8577 22.3407H49.7058L51.2365 8.72768C51.5115 6.20363 49.5344 4 46.9952 4H19.5159C16.9694 4 14.9911 6.21332 15.2758 8.74282L16.4449 19.1455C16.5439 20.0244 16.9631 20.836 17.6226 21.4254C18.282 22.0148 19.1354 22.3406 20.0199 22.3407H47.8577" stroke="#272727" stroke-linecap="round"/>
</svg>
