<svg width="56" height="56" viewBox="0 0 56 56" fill="none" xmlns="http://www.w3.org/2000/svg">
<path d="M35.1424 41.6736V44.9062M35.1817 42.1184H39.1416C40.5751 42.1184 41.7377 40.9557 41.7377 39.5222V22.0549C41.7377 20.6203 40.5751 19.4582 39.1416 19.4582H36.0464L35.1817 42.1184ZM39.321 25.6869V38.9096C39.321 39.3472 38.9665 39.7017 38.529 39.7017H35.1817L39.321 25.6869Z" stroke="#272727" stroke-linecap="round" stroke-linejoin="round"/>
<path d="M20.8279 22.1613V44.3268C20.8279 44.8492 21.0354 45.3502 21.4048 45.7196C21.7742 46.089 22.2752 46.2965 22.7976 46.2965H29.2156C29.738 46.2965 30.239 46.089 30.6084 45.7196C30.9778 45.3502 31.1853 44.8492 31.1853 44.3268V22.1613M17.1705 19.1364H36.0464L36.0076 22.1546H17.1876L17.1705 19.1364ZM36.0464 21.8417H38.5284C38.966 21.8417 39.3205 22.1962 39.3205 22.6338V38.3563L36.0464 21.8417Z" stroke="#272727" stroke-linecap="round" stroke-linejoin="round"/>
<path d="M35.1335 22.1546V47.2486C35.1335 47.9947 34.8156 48.6611 34.3154 49.1391L35.0771 51.4228C35.099 51.4888 35.1049 51.5589 35.0944 51.6276C35.0839 51.6963 35.0573 51.7615 35.0167 51.8178C34.9761 51.8742 34.9226 51.9201 34.8608 51.9517C34.799 51.9834 34.7305 52 34.6611 52H32.78C32.4582 52 32.1563 51.8427 31.9724 51.579L30.4885 49.4244C30.4197 49.3159 30.3832 49.19 30.3833 49.0616C30.3833 48.8847 30.4535 48.7151 30.5786 48.59C30.7037 48.4649 30.8733 48.3947 31.0502 48.3947C31.227 48.3947 31.3967 48.4649 31.5217 48.59C31.6468 48.7151 31.7171 48.8847 31.7171 49.0616C31.7171 49.4293 31.4191 49.7301 31.0507 49.7301L21.2982 49.7285C21.15 49.7286 21.006 49.6795 20.8889 49.5887C20.7717 49.4979 20.6882 49.3708 20.6514 49.2272C20.6146 49.0837 20.6266 48.932 20.6856 48.7961C20.7446 48.6601 20.8472 48.5477 20.9771 48.4766C21.1071 48.4054 21.2571 48.3796 21.4034 48.4031C21.5496 48.4267 21.6839 48.4983 21.785 48.6066C21.8861 48.715 21.9482 48.8539 21.9616 49.0015C21.9749 49.149 21.9387 49.2969 21.8587 49.4216L20.3427 51.5663C20.2521 51.6964 20.1314 51.8026 19.9908 51.876C19.8503 51.9494 19.6942 51.9877 19.5357 51.9878H17.6546C17.5851 51.9879 17.5166 51.9714 17.4547 51.9398C17.3928 51.9081 17.3393 51.8622 17.2986 51.8059C17.2579 51.7495 17.2312 51.6843 17.2207 51.6155C17.2102 51.5468 17.2161 51.4766 17.2381 51.4107L18.0013 49.123C17.5073 48.645 17.1888 47.982 17.1888 47.2364V22.0577V20.3223C17.1888 20.0027 17.186 19.6837 17.1755 19.3641C17.1517 18.6291 17.1755 18.0912 17.1755 17.1562C17.1755 16.8477 17.1511 16.2921 17.1511 16.09C17.1511 14.7966 15.8384 14.5124 14.8591 15.104C13.9063 15.6801 14.0027 17.0754 14.0027 18.012C16.3197 15.104 17.7194 15.104 20.5703 15.104H35.1335" stroke="#272727" stroke-linecap="round" stroke-linejoin="round"/>
<path d="M17.1733 13.6273C17.0414 11.6094 18.2068 10.3687 20.1178 9.69183C21.8205 9.08974 23.6822 9.00389 25.4713 8.96954C25.6613 8.96622 25.8496 8.84769 26.0196 8.69259C26.3153 8.42121 26.6513 8.19735 27.0156 8.02902C27.3829 7.86071 27.6942 7.5905 27.9125 7.25047C28.1307 6.91045 28.2468 6.51491 28.2469 6.11085C28.2466 5.79529 28.1757 5.48379 28.0392 5.19923C27.9028 4.91468 27.7044 4.66431 27.4585 4.46651C27.2126 4.26871 26.9255 4.12851 26.6184 4.0562C26.3112 3.9839 25.9917 3.98133 25.6834 4.04868C24.8581 4.22038 24.2017 4.90612 24.0599 5.73808C23.9812 6.17877 24.0446 6.63308 24.2411 7.03534C24.4375 7.43761 24.7568 7.76697 25.1528 7.97584C25.5041 8.16224 25.8252 8.40051 26.1055 8.68262C26.2645 8.84215 26.4439 8.96456 26.6223 8.96677C33.3223 9.05706 35.1335 11.0306 35.1335 13.6201V19.1364" stroke="#272727" stroke-linecap="round" stroke-linejoin="round"/>
<path d="M35.7961 22.3326H38.5497C38.7154 22.3326 38.8497 22.4669 38.8497 22.6326V38.925C38.8497 39.0907 38.7154 39.225 38.5497 39.225H35.7961V22.3326Z" fill="white"/>
</svg>
