<svg width="56" height="56" viewBox="0 0 56 56" fill="none" xmlns="http://www.w3.org/2000/svg">
<path fill-rule="evenodd" clip-rule="evenodd" d="M12.8297 8.53176L11.6729 6.46894C11.6729 6.46894 15.4758 3.117 21.6741 4.22434C27.8723 5.33226 34.3139 3.90969 36.1645 4.38196C38.015 4.85423 38.7634 5.20916 38.7634 5.20916L36.7708 8.53176H12.8297ZM15.0266 29.3924C14.824 29.3926 14.6236 29.4346 14.438 29.5158C14.2523 29.597 14.0855 29.7157 13.9478 29.8643C13.8101 30.0129 13.7046 30.1884 13.6378 30.3797C13.571 30.571 13.5444 30.774 13.5597 30.976L15.0525 50.6401C15.0805 51.01 15.2472 51.3556 15.5192 51.6078C15.7912 51.86 16.1484 52 16.5193 52H32.5243C32.895 51.9999 33.2519 51.8598 33.5237 51.6078C33.7955 51.3557 33.9621 51.0103 33.99 50.6407C34.0545 49.7974 34.334 48.9783 34.8339 48.296C35.2268 47.7593 35.8032 47.1306 36.6454 46.4742C41.6356 42.5833 44.1178 38.063 44.1178 32.8467C44.1178 30.5331 42.6532 29.3941 39.5388 29.3941C39.5388 29.3941 15.0703 29.3947 15.0266 29.3924V29.3924Z" stroke="#272727" stroke-linecap="round" stroke-linejoin="round"/>
<path d="M34.1474 29.3919C34.4839 29.3919 35.3122 29.1065 35.0045 28.6228C34.7911 28.288 34.1905 28.2316 33.8408 28.1413C33.2063 27.9779 32.5597 27.86 31.9148 27.7444C31.3758 27.6483 30.7396 27.6224 30.2294 27.4125C29.8549 27.2583 29.4643 27.1093 29.2935 26.8401M41.3321 34.0922C41.3321 38.6389 37.8749 43.2213 34.6133 43.5273C34.3084 43.5561 33.9731 43.6884 33.6964 43.8184C33.4191 43.9484 33.1723 44.1791 33.0975 44.4753C33.0228 44.7721 33.1666 45.1305 33.4553 45.2329C33.7752 45.3457 34.1341 45.1098 34.2779 44.8026C34.4218 44.4954 34.508 44.4724 34.6133 43.1603C34.7059 42.0162 35.2277 35.3088 35.2277 35.3088C35.4422 33.0216 37.3676 31.8102 38.9794 31.8102C40.3956 31.8102 41.3321 32.5442 41.3321 34.0922V34.0922Z" stroke="#272727" stroke-linecap="round" stroke-linejoin="round"/>
<path d="M22.1024 26.855H28.3541C29.7802 26.855 29.6254 26.8636 30.532 25.2121C30.7897 24.7433 31.0503 24.2756 31.312 23.8085C31.6112 23.2747 31.9114 22.7415 32.2117 22.2088C32.5373 21.6295 32.8635 21.0497 33.1885 20.4692C33.5279 19.8641 33.8661 19.2566 34.2015 18.6486C34.5409 18.0352 34.877 17.4201 35.2099 16.8032C35.5351 16.2013 35.8557 15.5969 36.1717 14.9901C36.4691 14.4183 36.7607 13.8442 37.0449 13.2666C37.5718 12.1932 38.0142 11.0324 38.8207 10.1281C39.3505 9.53445 40.0437 9.10186 40.8283 8.94137C41.3635 8.83209 41.9152 8.83117 42.4508 8.93867C42.9864 9.04616 43.4951 9.25989 43.9467 9.56724C44.2412 9.76857 44.641 9.71968 44.9004 9.4752L45.6264 8.79296C45.7096 8.71495 45.7747 8.61963 45.8171 8.51372C45.8595 8.4078 45.8781 8.29388 45.8716 8.17999C45.8651 8.0661 45.8337 7.95502 45.7796 7.85459C45.7255 7.75416 45.65 7.66683 45.5585 7.59875C44.4253 6.76628 43.0553 6.31836 41.6492 6.32056C39.7267 6.32056 37.9164 7.15064 36.7055 8.5318H11.7785C11.6547 8.53149 11.5326 8.5608 11.4224 8.61728C11.3122 8.67377 11.2171 8.75579 11.145 8.8565C11.073 8.95721 11.026 9.07369 11.0081 9.19623C10.9903 9.31877 11.0019 9.44381 11.0422 9.56091C12.4516 13.6469 19.5293 25.9755 19.5293 26.855C19.5293 27.2059 19.0179 27.3647 18.7562 27.4498C18.204 27.6293 17.623 27.7213 17.0518 27.8214C16.503 27.9181 15.9479 28.0043 15.4095 28.1528C15.1702 28.2189 14.913 28.2954 14.7031 28.4329C14.538 28.5416 14.4396 28.7309 14.5184 28.9253C14.6519 29.2538 15.1282 29.3717 15.4457 29.3717L16.7998 29.3936L16.0422 29.3717" stroke="#272727" stroke-linecap="round" stroke-linejoin="round"/>
</svg>
